<?xml version="1.0" encoding="UTF-8"?><svg xmlns="http://www.w3.org/2000/svg" viewBox="0 0 1920 1080.85"><defs><style>.d{stroke:#f93ba1;stroke-width:3px;}.d,.e{fill:none;stroke-miterlimit:10;}.e{stroke:gray;}</style></defs><g id="a"/><g id="b"><g id="c"><g><circle class="e" cx="594.11" cy="674.03" r="233.63"/><circle class="e" cx="1175.82" cy="786.13" r="121.28"/><line class="e" y1="170.92" x2="1920" y2="170.92"/><line class="e" y1="440.4" x2="1920" y2="440.4"/><line class="e" y1="907.66" x2="1920" y2="907.66"/><line class="e" x1="649.9" y1=".29" x2="649.9" y2="1080.29"/><line class="e" x1="736" y1=".85" x2="736" y2="1080.85"/><line class="e" x1="1142.53" y1=".29" x2="386.3" y2="1080.29"/><line class="e" x1="1037.11" y1=".29" x2="280.89" y2="1080.29"/><line class="e" x1="1577.55" y1=".29" x2="821.32" y2="1080.29"/></g><g><polygon class="d" points="1030.2 440.4 781.06 796.2 886.04 796.2 1135.18 440.4 1030.2 440.4"/><polygon class="d" points="1022.99 171.01 917.82 171.01 736.04 430.54 736.04 170.92 649.9 170.92 649.9 796.2 736.04 796.2 736.04 468.99 858.24 643.5 910.81 568.4 827.77 449.81 1022.99 171.01"/><polygon class="d" points="1165.12 440.4 897.84 821.56 650.12 821.56 650.12 907.66 942.68 907.66 1270.1 440.4 1165.12 440.4"/></g></g></g></svg>