<?xml version="1.0" encoding="utf-8"?>
<!-- Generator: Adobe Illustrator 26.2.0, SVG Export Plug-In . SVG Version: 6.00 Build 0)  -->
<svg version="1.1" id="Layer_1" xmlns="http://www.w3.org/2000/svg" xmlns:xlink="http://www.w3.org/1999/xlink" x="0px" y="0px"
	 viewBox="0 0 560 1213" style="enable-background:new 0 0 560 1213;" xml:space="preserve">
<style type="text/css">
	.st0{opacity:0.2;}
	.st1{clip-path:url(#SVGID_00000060009116567123390530000013665354246585043596_);}
	.st2{clip-path:url(#SVGID_00000054974363412902039410000001769152901529946498_);}
	.st3{fill:#FFFFFF;}
	.st4{fill:#FA3BA2;}
	.st5{fill:#1EEC8B;}
	.st6{fill:none;stroke:#F93BA1;stroke-miterlimit:10;}
	.st7{fill:none;stroke:#1EEB8A;stroke-miterlimit:10;}
	.st8{fill:none;stroke:#808080;stroke-miterlimit:10;}
	.st9{fill:none;stroke:#F93BA1;stroke-width:3;stroke-miterlimit:10;}
</style>
<g>
	<circle class="st8" cx="40.9" cy="697.8" r="159.8"/>
	<circle class="st8" cx="438.9" cy="774.5" r="83"/>
	<g>
		<line class="st8" x1="0" y1="353.6" x2="560" y2="353.6"/>
		<line class="st8" x1="0" y1="538" x2="560" y2="538"/>
		<line class="st8" x1="0" y1="857.7" x2="560" y2="857.7"/>
	</g>
	<line class="st8" x1="79" y1="0" x2="79" y2="1213"/>
	<line class="st8" x1="137.9" y1="0" x2="137.9" y2="1213"/>
	<line class="st8" x1="582.6" y1="0" x2="0" y2="831.2"/>
	<line class="st8" x1="510.5" y1="0" x2="0" y2="728.3"/>
	<line class="st8" x1="560" y1="456.4" x2="30.2" y2="1213"/>
</g>
<g>
	<g>
		<polygon class="st9" points="339.2,538 168.8,781.4 240.6,781.4 411.1,538 		"/>
		<polygon class="st9" points="334.3,353.7 262.3,353.7 138,531.2 138,353.6 79,353.6 79,781.4 138,781.4 138,557.5 221.6,676.9 
			257.6,625.5 200.7,544.4 		"/>
		<polygon class="st9" points="431.5,538 248.7,798.7 79.2,798.7 79.2,857.7 279.4,857.7 503.4,538 		"/>
	</g>
</g>
</svg>
